# Made using Asset Forge (www.assetforge.io) version 1.3 

mtllib Doorway.mtl 

g wall_doorwaySquare_0

v 0.4375 0 0.5
v 0.4375 1 0.5
v 0.5 -2.707168E-16 0.5625
v 0.5 1 0.5625
v 0.5 -6.316725E-16 -0.5625
v 0.5 1 -0.5625
v 0.4375 0 -0.5
v 0.4375 1 -0.5
v 0.5625 1 0.5
v 0.5625 0 0.5
v 0.5625 1 -0.5
v 0.6125 -2.355956E-17 -0.1822564
v 0.6125 -2.355956E-17 -0.2323148
v 0.3875 -8.014827E-32 -0.1822564
v 0.5625 0 -0.2323148
v 0.4375 -4.007413E-32 -0.2324219
v 0.5625 0 -0.5
v 0.3875 -4.007413E-32 -0.2324219
v 0.6125 -2.355956E-17 0.1822564
v 0.3875 -8.014827E-32 0.1822564
v 0.6125 -2.355956E-17 0.2323148
v 0.5625 0 0.2323148
v 0.4375 -4.007413E-32 0.2324219
v 0.3875 -4.007413E-32 0.2324219
v 0.4375 0.8046783 0.2324219
v 0.4375 0.8046783 -0.2324219
v 0.5625 0.8045712 -0.2323148
v 0.5625 0.8045712 0.2323148
v 0.6125 0.7545128 0.1822564
v 0.3875 0.7545128 0.1822564
v 0.6125 0.7545128 -0.1822564
v 0.3875 0.7545128 -0.1822564
v 0.6125 0.8045712 -0.2323148
v 0.6125 0.8045712 0.2323148
v 0.3875 0.8046783 0.2324219
v 0.3875 0.8046783 -0.2324219
vn -0.7071068 0 0.7071068
vn -0.7071068 0 -0.7071068
vn 0.7071068 0 0.7071068
vn 0 1 0
vn 0 -1 0
vn 0.7071068 0 -0.7071068
vn -1 0 0
vn 1 0 0
vn 0 0 -1
vn 0 0 1
vt 0.4375 0
vt 0.4375 1
vt 0.5 -2.707168E-16
vt 0.5 1
vt -0.5 -6.316725E-16
vt -0.5 1
vt -0.4375 0
vt -0.4375 1
vt 0.5625 1
vt 0.5625 0
vt -0.5625 -0.5
vt -0.5625 0.5
vt -0.5 -0.5625
vt -0.5 0.5625
vt -0.4375 -0.5
vt -0.4375 0.5
vt -0.6125 0.1822564
vt -0.6125 0.2323148
vt -0.3875 0.1822564
vt -0.5625 0.2323148
vt -0.4375 0.2324219
vt -0.3875 0.2324219
vt -0.5625 1
vt -0.5625 0
vt -0.6125 -0.1822564
vt -0.3875 -0.1822564
vt -0.6125 -0.2323148
vt -0.5625 -0.2323148
vt -0.4375 -0.2324219
vt -0.3875 -0.2324219
vt 0.2324219 -4.007413E-32
vt 0.2324219 0.8046783
vt 0.5 0
vt -0.2324219 0.8046783
vt -0.2324219 -4.007413E-32
vt -0.5 0
vt 0.2323148 0.8045712
vt 0.2323148 0
vt -0.2323148 0.8045712
vt -0.2323148 0
vt -0.6125 -2.355956E-17
vt -0.6125 0.7545128
vt -0.3875 -8.014827E-32
vt -0.3875 0.7545128
vt 0.6125 -2.355956E-17
vt 0.3875 -8.014827E-32
vt 0.6125 0.7545128
vt 0.3875 0.7545128
vt 0.2323148 -2.355956E-17
vt 0.1822564 0.7545128
vt -0.1822564 0.7545128
vt -0.1822564 -2.355956E-17
vt -0.2323148 -2.355956E-17
vt 0.1822564 -2.355956E-17
vt -0.6125 0.8045712
vt -0.5625 0.8045712
vt 0.6125 0.8045712
vt 0.5625 0.8045712
vt 0.1822564 -8.014827E-32
vt -0.1822564 -8.014827E-32
vt 0.4375 -4.007413E-32
vt 0.3875 -4.007413E-32
vt 0.4375 0.8046783
vt 0.3875 0.8046783
vt -0.3875 -4.007413E-32
vt -0.4375 -4.007413E-32
vt -0.3875 0.8046783
vt -0.4375 0.8046783

usemtl stone (Instance)
usemap stone (Instance)
f 3/3/1 2/2/1 1/1/1
f 2/2/1 3/3/1 4/4/1
f 7/7/2 6/6/2 5/5/2
f 6/6/2 7/7/2 8/8/2
f 4/4/3 10/10/3 9/9/3
f 10/10/3 4/4/3 3/3/3
f 6/13/4 9/12/4 11/11/4
f 9/12/4 6/13/4 4/14/4
f 4/14/4 6/13/4 8/15/4
f 4/14/4 8/15/4 2/16/4
f 14/19/5 13/18/5 12/17/5
f 13/18/5 14/19/5 15/20/5
f 15/20/5 14/19/5 16/21/5
f 15/20/5 16/21/5 17/12/5
f 17/12/5 16/21/5 5/14/5
f 16/21/5 14/19/5 18/22/5
f 7/16/5 5/14/5 16/21/5
f 11/23/6 5/5/6 6/6/6
f 5/5/6 11/23/6 17/24/6
f 21/27/5 20/26/5 19/25/5
f 20/26/5 21/27/5 22/28/5
f 20/26/5 22/28/5 23/29/5
f 23/29/5 22/28/5 10/11/5
f 23/29/5 10/11/5 3/13/5
f 23/29/5 3/13/5 1/15/5
f 20/26/5 23/29/5 24/30/5
f 1/33/7 25/32/7 23/31/7
f 2/4/7 25/32/7 1/33/7
f 2/4/7 26/34/7 25/32/7
f 8/6/7 26/34/7 2/4/7
f 8/6/7 16/35/7 26/34/7
f 16/35/7 8/6/7 7/36/7
f 15/38/8 17/33/8 27/37/8
f 11/4/8 27/37/8 17/33/8
f 27/37/8 11/4/8 9/6/8
f 27/37/8 9/6/8 28/39/8
f 28/39/8 9/6/8 22/40/8
f 22/40/8 9/6/8 10/36/8

usemtl lightStone (Instance)
usemap lightStone (Instance)
f 20/43/9 29/42/9 19/41/9
f 29/42/9 20/43/9 30/44/9
f 30/26/5 31/17/5 29/25/5
f 31/17/5 30/26/5 32/19/5
f 31/47/10 14/46/10 12/45/10
f 14/46/10 31/47/10 32/48/10
f 33/37/8 31/50/8 13/49/8
f 31/50/8 33/37/8 34/39/8
f 31/50/8 34/39/8 29/51/8
f 29/51/8 34/39/8 19/52/8
f 19/52/8 34/39/8 21/53/8
f 12/54/8 13/49/8 31/50/8
f 15/24/9 33/55/9 13/41/9
f 33/55/9 15/24/9 27/56/9
f 27/28/4 34/18/4 33/27/4
f 34/18/4 27/28/4 28/20/4
f 34/57/10 22/10/10 21/45/10
f 22/10/10 34/57/10 28/58/10
f 24/31/7 30/50/7 20/59/7
f 35/32/7 30/50/7 24/31/7
f 35/32/7 32/51/7 30/50/7
f 36/34/7 32/51/7 35/32/7
f 36/34/7 14/60/7 32/51/7
f 14/60/7 36/34/7 18/35/7
f 25/63/10 24/62/10 23/61/10
f 24/62/10 25/63/10 35/64/10
f 36/30/4 25/21/4 26/29/4
f 25/21/4 36/30/4 35/22/4
f 36/67/9 16/66/9 18/65/9
f 16/66/9 36/67/9 26/68/9
